<svg xmlns="http://www.w3.org/2000/svg" width="358" height="689" preserveAspectRatio="xMidYMid meet" viewBox="0 0 358 689"><defs><clipPath id="__lottie_element_93"><rect width="358" height="689" x="0" y="0"/></clipPath><radialGradient id="__lottie_element_97" cx="-350" cy="32" r="184.361" fx="-347.581" fy="31.463" gradientUnits="userSpaceOnUse" spreadMethod="pad"><stop offset="0%" stop-color="#7893AB"/><stop offset="50%" stop-color="#7893AB"/><stop offset="100%" stop-color="#7893AB"/></radialGradient><mask id="__lottie_element_99"><path fill="url(#__lottie_element_98)" d="M-162,-401.73699951171875 C-162,-401.73699951171875 -159.0500030517578,282.0270080566406 -159.0500030517578,282.0270080566406 C-159.0500030517578,282.0270080566406 -508.1860046386719,283.67401123046875 -508.1860046386719,283.67401123046875 C-508.1860046386719,283.67401123046875 -508.3919982910156,-400.3609924316406 -508.3919982910156,-400.3609924316406 C-508.3919982910156,-400.3609924316406 -162,-401.73699951171875 -162,-401.73699951171875z"/></mask><radialGradient id="__lottie_element_98" cx="-350" cy="32" r="184.361" fx="-347.581" fy="31.463" gradientUnits="userSpaceOnUse" spreadMethod="pad"><stop offset="0%" stop-color="#FFF" stop-opacity="1"/><stop offset="45%" stop-color="#FFF" stop-opacity=".5"/><stop offset="90%" stop-color="#FFF" stop-opacity="0"/></radialGradient><mask id="__lottie_element_107" mask-type="alpha"><g opacity="1"><g opacity="1"><path fill="#FFF" fill-opacity="1" d="M-99.93099975585938,-343.9639892578125 C-99.93099975585938,-343.9639892578125 157.04400634765625,-344.30999755859375 157.04400634765625,-344.30999755859375 C169.70599365234375,-344.30999755859375 179.2550048828125,-334.83099365234375 178.2169952392578,-323.2070007324219 C178.2169952392578,-323.2070007324219 134.00399780273438,173.23800659179688 134.00399780273438,173.23800659179688 C132.89700317382812,185.41600036621094 121.82599639892578,194.6179962158203 109.09500122070312,193.92599487304688 C109.09500122070312,193.92599487304688 -155.83700561523438,179.39599609375 -155.83700561523438,179.39599609375 C-168.1529998779297,178.70399475097656 -177.07899475097656,168.3249969482422 -175.76400756835938,156.28599548339844 C-175.76400756835938,156.28599548339844 -123.11000061035156,-324.1059875488281 -123.11000061035156,-324.1059875488281 C-121.86499786376953,-335.10699462890625 -111.55500030517578,-343.8949890136719 -99.93099975585938,-343.9639892578125z" transform="matrix(1,0,0,1,179,344.5) matrix(1,0,0,1,0,0)"/></g></g></mask><mask id="__lottie_element_113" mask-type="alpha"><g opacity="1"><g opacity="1"><path fill="#FFF" fill-opacity="1" d="M-99.93099975585938,-343.9639892578125 C-99.93099975585938,-343.9639892578125 157.04400634765625,-344.30999755859375 157.04400634765625,-344.30999755859375 C169.70599365234375,-344.30999755859375 179.2550048828125,-334.83099365234375 178.2169952392578,-323.2070007324219 C178.2169952392578,-323.2070007324219 134.00399780273438,173.23800659179688 134.00399780273438,173.23800659179688 C132.89700317382812,185.41600036621094 121.82599639892578,194.6179962158203 109.09500122070312,193.92599487304688 C109.09500122070312,193.92599487304688 -155.83700561523438,179.39599609375 -155.83700561523438,179.39599609375 C-168.1529998779297,178.70399475097656 -177.07899475097656,168.3249969482422 -175.76400756835938,156.28599548339844 C-175.76400756835938,156.28599548339844 -123.11000061035156,-324.1059875488281 -123.11000061035156,-324.1059875488281 C-121.86499786376953,-335.10699462890625 -111.55500030517578,-343.8949890136719 -99.93099975585938,-343.9639892578125z" transform="matrix(1,0,0,1,179,344.5) matrix(1,0,0,1,0,0)"/></g></g></mask><mask id="__lottie_element_119" mask-type="alpha"><g opacity="1"><g opacity="1"><path fill="#FFF" fill-opacity="1" d="M-99.93099975585938,-343.9639892578125 C-99.93099975585938,-343.9639892578125 157.04400634765625,-344.30999755859375 157.04400634765625,-344.30999755859375 C169.70599365234375,-344.30999755859375 179.2550048828125,-334.83099365234375 178.2169952392578,-323.2070007324219 C178.2169952392578,-323.2070007324219 134.00399780273438,173.23800659179688 134.00399780273438,173.23800659179688 C132.89700317382812,185.41600036621094 121.82599639892578,194.6179962158203 109.09500122070312,193.92599487304688 C109.09500122070312,193.92599487304688 -155.83700561523438,179.39599609375 -155.83700561523438,179.39599609375 C-168.1529998779297,178.70399475097656 -177.07899475097656,168.3249969482422 -175.76400756835938,156.28599548339844 C-175.76400756835938,156.28599548339844 -123.11000061035156,-324.1059875488281 -123.11000061035156,-324.1059875488281 C-121.86499786376953,-335.10699462890625 -111.55500030517578,-343.8949890136719 -99.93099975585938,-343.9639892578125z" transform="matrix(1,0,0,1,179,344.5) matrix(1,0,0,1,0,0)"/></g></g></mask><clipPath id="__lottie_element_227"><path fill="#fff" fill-opacity="1" d="M-21.5,-346.5 C-37.053001403808594,-346.5 -64,-338.3219909667969 -64,-304 C-64,-269.6780090332031 -37.053001403808594,-261.5 -21.5,-261.5 C-5.947000026702881,-261.5 21,-269.6780090332031 21,-304 C21,-338.3219909667969 -5.947000026702881,-346.5 -21.5,-346.5" clip-rule="nonzero"/></clipPath><clipPath id="__lottie_element_230"><path fill="#fff" fill-opacity="1" d="M21,-346.5 C5.447000026702881,-346.5 -21.5,-338.3219909667969 -21.5,-304 C-21.5,-269.6780090332031 5.447000026702881,-261.5 21,-261.5 C36.553001403808594,-261.5 63.5,-269.6780090332031 63.5,-304 C63.5,-338.3219909667969 36.553001403808594,-346.5 21,-346.5" clip-rule="nonzero"/></clipPath><clipPath id="__lottie_element_233"><path fill="#fff" fill-opacity="1" d="M50,-380.5 C13.770000457763672,-380.5 -49,-361.45098876953125 -49,-281.5 C-49,-201.5489959716797 13.770000457763672,-182.5 50,-182.5 C86.2300033569336,-182.5 149,-201.5489959716797 149,-281.5 C149,-361.45098876953125 86.2300033569336,-380.5 50,-380.5" clip-rule="nonzero"/></clipPath><clipPath id="__lottie_element_236"><path fill="#fff" fill-opacity="1" d="M-41,-50.5 C-79.88300323486328,-50.5 -147.25,-30.055999755859375 -147.25,55.75 C-147.25,141.55599975585938 -79.88300323486328,162 -41,162 C-2.117000102996826,162 65.25,141.55599975585938 65.25,55.75 C65.25,-30.055999755859375 -2.117000102996826,-50.5 -41,-50.5" clip-rule="nonzero"/></clipPath><clipPath id="__lottie_element_239"><path fill="#fff" fill-opacity="1" d="M-9.25,-102.5 C-58.74599838256836,-102.5 -144.5,-76.4749984741211 -144.5,32.75 C-144.5,141.97500610351562 -58.74599838256836,168 -9.25,168 C40.24599838256836,168 126,141.97500610351562 126,32.75 C126,-76.4749984741211 40.24599838256836,-102.5 -9.25,-102.5" clip-rule="nonzero"/></clipPath><clipPath id="__lottie_element_242"><path fill="#fff" fill-opacity="1" d="M-8.25,-121.5 C-57.74599838256836,-121.5 -143.5,-95.4749984741211 -143.5,13.75 C-143.5,122.9749984741211 -57.74599838256836,149 -8.25,149 C41.24599838256836,149 127,122.9749984741211 127,13.75 C127,-95.4749984741211 41.24599838256836,-121.5 -8.25,-121.5" clip-rule="nonzero"/></clipPath><clipPath id="__lottie_element_245"><path fill="#fff" fill-opacity="1" d="M-106.25,-66 C-122.26100158691406,-66 -150,-57.582000732421875 -150,-22.25 C-150,13.081999778747559 -122.26100158691406,21.5 -106.25,21.5 C-90.23899841308594,21.5 -62.5,13.081999778747559 -62.5,-22.25 C-62.5,-57.582000732421875 -90.23899841308594,-66 -106.25,-66" clip-rule="nonzero"/></clipPath><clipPath id="__lottie_element_263"><path fill="#fff" fill-opacity="1" d="M-79,-382.5 C-239.71499633789062,-382.5 -370,-252.21499633789062 -370,-91.5 C-370,69.21499633789062 -239.71499633789062,199.5 -79,199.5 C81.71499633789062,199.5 212,69.21499633789062 212,-91.5 C212,-252.21499633789062 81.71499633789062,-382.5 -79,-382.5" clip-rule="nonzero"/></clipPath><clipPath id="__lottie_element_266"><path fill="#fff" fill-opacity="1" d="M-79,-382.5 C-239.71499633789062,-382.5 -370,-252.21499633789062 -370,-91.5 C-370,69.21499633789062 -239.71499633789062,199.5 -79,199.5 C81.71499633789062,199.5 212,69.21499633789062 212,-91.5 C212,-252.21499633789062 81.71499633789062,-382.5 -79,-382.5" clip-rule="nonzero"/></clipPath><clipPath id="__lottie_element_269"><path fill="#fff" fill-opacity="1" d="M-79,-382.5 C-239.71499633789062,-382.5 -370,-252.21499633789062 -370,-91.5 C-370,69.21499633789062 -239.71499633789062,199.5 -79,199.5 C81.71499633789062,199.5 212,69.21499633789062 212,-91.5 C212,-252.21499633789062 81.71499633789062,-382.5 -79,-382.5" clip-rule="nonzero"/></clipPath></defs><g clip-path="url(#__lottie_element_93)"><g opacity="1"><g opacity="1"><path fill="url(#__lottie_element_97)" fill-opacity=".8" d="M0 0 M-162,-401.73699951171875 C-162,-401.73699951171875 -159.0500030517578,282.0270080566406 -159.0500030517578,282.0270080566406 C-159.0500030517578,282.0270080566406 -508.1860046386719,283.67401123046875 -508.1860046386719,283.67401123046875 C-508.1860046386719,283.67401123046875 -508.3919982910156,-400.3609924316406 -508.3919982910156,-400.3609924316406 C-508.3919982910156,-400.3609924316406 -162,-401.73699951171875 -162,-401.73699951171875z" mask="url(#__lottie_element_99)" transform="matrix(1,0,0,1,518,408.5) matrix(1,0,0,1,-2,-1.5)"/></g></g><g opacity="1"><g opacity="1"><path fill="#FFF" fill-opacity="1" d="M-99.93099975585938,-343.9639892578125 C-99.93099975585938,-343.9639892578125 157.04400634765625,-344.30999755859375 157.04400634765625,-344.30999755859375 C169.70599365234375,-344.30999755859375 179.2550048828125,-334.83099365234375 178.2169952392578,-323.2070007324219 C178.2169952392578,-323.2070007324219 134.00399780273438,173.23800659179688 134.00399780273438,173.23800659179688 C132.89700317382812,185.41600036621094 121.82599639892578,194.6179962158203 109.09500122070312,193.92599487304688 C109.09500122070312,193.92599487304688 -155.83700561523438,179.39599609375 -155.83700561523438,179.39599609375 C-168.1529998779297,178.70399475097656 -177.07899475097656,168.3249969482422 -175.76400756835938,156.28599548339844 C-175.76400756835938,156.28599548339844 -123.11000061035156,-324.1059875488281 -123.11000061035156,-324.1059875488281 C-121.86499786376953,-335.10699462890625 -111.55500030517578,-343.8949890136719 -99.93099975585938,-343.9639892578125z" transform="matrix(1,0,0,1,179,344.5) matrix(1,0,0,1,0,0)"/></g></g><g opacity="1"><g opacity="1"><path fill="#F4F9FE" fill-opacity="1" d="M-58.62300109863281,-293.0400085449219 C-59.72999954223633,-282.5920104980469 -69.9010009765625,-274.1510009765625 -81.31800079345703,-274.1510009765625 C-92.73500061035156,-274.1510009765625 -101.03700256347656,-282.5220031738281 -99.93000030517578,-292.9010009765625 C-98.822998046875,-303.2799987792969 -88.72100067138672,-311.72100830078125 -77.30500030517578,-311.7900085449219 C-65.95800018310547,-311.7900085449219 -57.584999084472656,-303.41900634765625 -58.62300109863281,-293.0400085449219z" transform="matrix(1,0,0,1,179,344.5) matrix(1,0,0,1,0,0)"/></g></g><g clip-path="url(#__lottie_element_227)" opacity="1" transform="matrix(1,0,0,1,179,344.5)"><g opacity="1"><path fill="#D8E1EA" fill-opacity="1" d="M15.411999702453613,-304.802001953125 C15.411999702453613,-304.802001953125 14.927000045776367,-300.3739929199219 14.927000045776367,-300.3739929199219 C14.720000267028809,-298.6440124511719 13.128000259399414,-297.3290100097656 11.260000228881836,-297.3290100097656 C11.260000228881836,-297.3290100097656 -42.29399871826172,-297.6059875488281 -42.29399871826172,-297.6059875488281 C-44.1619987487793,-297.6059875488281 -45.54600143432617,-299.0589904785156 -45.40700149536133,-300.8580017089844 C-45.40700149536133,-300.8580017089844 -44.92300033569336,-305.3550109863281 -44.92300033569336,-305.3550109863281 C-44.71500015258789,-307.0849914550781 -43.124000549316406,-308.3999938964844 -41.32500076293945,-308.3999938964844 C-41.32500076293945,-308.3999938964844 12.229000091552734,-308.0539855957031 12.229000091552734,-308.0539855957031 C14.234999656677246,-308.0539855957031 15.619000434875488,-306.60101318359375 15.411999702453613,-304.802001953125z" transform="matrix(1,0,0,1,0,0)"/></g></g><g clip-path="url(#__lottie_element_230)" opacity="1" transform="matrix(1,0,0,1,179,344.5)"><g opacity="1"><path fill="#D8E1EA" fill-opacity="1" d="M57.34000015258789,-304.593994140625 C57.34000015258789,-304.593994140625 56.85599899291992,-300.1659851074219 56.85599899291992,-300.1659851074219 C56.64799880981445,-298.4360046386719 55.05699920654297,-297.0530090332031 53.18899917602539,-297.0530090332031 C53.18899917602539,-297.0530090332031 24.405000686645508,-297.260009765625 24.405000686645508,-297.260009765625 C22.468000411987305,-297.260009765625 21.083999633789062,-298.7130126953125 21.29199981689453,-300.5119934082031 C21.29199981689453,-300.5119934082031 21.775999069213867,-305.0790100097656 21.775999069213867,-305.0790100097656 C21.983999252319336,-306.8089904785156 23.575000762939453,-308.1919860839844 25.44300079345703,-308.1919860839844 C25.44300079345703,-308.1919860839844 54.22700119018555,-307.84600830078125 54.22700119018555,-307.84600830078125 C56.095001220703125,-307.84600830078125 57.54800033569336,-306.39300537109375 57.34000015258789,-304.593994140625z" transform="matrix(1,0,0,1,0,0)"/></g></g><g clip-path="url(#__lottie_element_233)" opacity="1" transform="matrix(1,0,0,1,179,344.5)"><g opacity="1"><path fill="#D8E1EA" fill-opacity="1" d="M146.38900756835938,-280.65399169921875 C146.38900756835938,-280.65399169921875 145.90499877929688,-276.1570129394531 145.90499877929688,-276.1570129394531 C145.69700622558594,-274.427001953125 144.1060028076172,-273.0429992675781 142.16900634765625,-273.0429992675781 C142.16900634765625,-273.0429992675781 -44.09299850463867,-274.6340026855469 -44.09299850463867,-274.6340026855469 C-45.96099853515625,-274.6340026855469 -47.345001220703125,-276.0880126953125 -47.207000732421875,-277.8869934082031 C-47.207000732421875,-277.8869934082031 -46.72200012207031,-282.4530029296875 -46.72200012207031,-282.4530029296875 C-46.51499938964844,-284.1830139160156 -44.92300033569336,-285.5660095214844 -43.125,-285.49700927734375 C-43.125,-285.49700927734375 142.79100036621094,-284.114013671875 142.79100036621094,-284.114013671875 C144.86700439453125,-284.0450134277344 146.5970001220703,-282.4530029296875 146.38900756835938,-280.65399169921875z" transform="matrix(1,0,0,1,0,0)"/></g></g><g clip-path="url(#__lottie_element_236)" opacity="1" transform="matrix(1,0,0,1,179,344.5)"><g opacity="1"><path fill="#D8E1EA" fill-opacity="1" d="M57.132999420166016,64.19300079345703 C57.132999420166016,64.19300079345703 56.64899826049805,68.89800262451172 56.64899826049805,68.89800262451172 C56.44200134277344,70.6969985961914 54.78099822998047,72.08100128173828 52.91299819946289,72.01200103759766 C52.91299819946289,72.01200103759766 -134.66400146484375,63.08599853515625 -134.66400146484375,63.08599853515625 C-136.53199768066406,63.016998291015625 -137.98500061035156,61.42499923706055 -137.77699279785156,59.62699890136719 C-137.77699279785156,59.62699890136719 -137.2239990234375,54.922000885009766 -137.2239990234375,54.922000885009766 C-137.01600646972656,53.12300109863281 -135.4250030517578,51.80799865722656 -133.5570068359375,51.87699890136719 C-133.5570068359375,51.87699890136719 53.67399978637695,60.5260009765625 53.67399978637695,60.5260009765625 C55.68000030517578,60.595001220703125 57.340999603271484,62.32500076293945 57.132999420166016,64.19300079345703z" transform="matrix(1,0,0,1,0,0)"/></g></g><g clip-path="url(#__lottie_element_239)" opacity="1" transform="matrix(1,0,0,1,179,344.5)"><g opacity="1"><path fill="#D8E1EA" fill-opacity="1" d="M116.01399993896484,42.46699905395508 C116.01399993896484,42.46699905395508 115.52999877929688,47.172000885009766 115.52999877929688,47.172000885009766 C115.3219985961914,48.97100067138672 113.66200256347656,50.35499954223633 111.7239990234375,50.2859992980957 C111.7239990234375,50.2859992980957 -132.86599731445312,39.69900131225586 -132.86599731445312,39.69900131225586 C-134.73399353027344,39.630001068115234 -136.1179962158203,38.03900146484375 -135.91000366210938,36.2400016784668 C-135.91000366210938,36.2400016784668 -135.3560028076172,31.53499984741211 -135.3560028076172,31.53499984741211 C-135.1479949951172,29.736000061035156 -133.5570068359375,28.42099952697754 -131.68899536132812,28.489999771118164 C-131.68899536132812,28.489999771118164 112.55500030517578,38.79999923706055 112.55500030517578,38.79999923706055 C114.49199676513672,38.79999923706055 116.22200012207031,40.529998779296875 116.01399993896484,42.46699905395508z" transform="matrix(1,0,0,1,0,0)"/></g></g><g clip-path="url(#__lottie_element_242)" opacity="1" transform="matrix(1,0,0,1,179,344.5)"><g opacity="1"><path fill="#D8E1EA" fill-opacity="1" d="M118.22699737548828,17.14299964904785 C118.22699737548828,17.14299964904785 117.74299621582031,21.847999572753906 117.74299621582031,21.847999572753906 C117.53500366210938,23.64699935913086 115.875,25.0310001373291 113.93800354003906,24.961999893188477 C113.93800354003906,24.961999893188477 -130.30599975585938,14.998000144958496 -130.30599975585938,14.998000144958496 C-132.1739959716797,14.928999900817871 -133.5590057373047,13.406999588012695 -133.3509979248047,11.538999557495117 C-133.3509979248047,11.538999557495117 -132.7969970703125,6.834000110626221 -132.7969970703125,6.834000110626221 C-132.58900451660156,5.034999847412109 -130.9980010986328,3.7200000286102295 -129.1300048828125,3.7890000343322754 C-129.1300048828125,3.7890000343322754 114.6989974975586,13.47599983215332 114.6989974975586,13.47599983215332 C116.70500183105469,13.545000076293945 118.36599731445312,15.274999618530273 118.22699737548828,17.14299964904785z" transform="matrix(1,0,0,1,0,0)"/></g></g><g clip-path="url(#__lottie_element_245)" opacity="1" transform="matrix(1,0,0,1,179,344.5)"><g opacity="1"><path fill="#D8E1EA" fill-opacity="1" d="M-85.4010009765625,-20.77400016784668 C-85.4010009765625,-20.77400016784668 -85.9540023803711,-16.207000732421875 -85.9540023803711,-16.207000732421875 C-86.16200256347656,-14.47700023651123 -87.75299835205078,-13.093000411987305 -89.62100219726562,-13.163000106811523 C-89.62100219726562,-13.163000106811523 -126.56900024414062,-14.822999954223633 -126.56900024414062,-14.822999954223633 C-128.43699645996094,-14.892000198364258 -129.82200622558594,-16.413999557495117 -129.61399841308594,-18.283000946044922 C-129.61399841308594,-18.283000946044922 -129.05999755859375,-22.917999267578125 -129.05999755859375,-22.917999267578125 C-128.8520050048828,-24.648000717163086 -127.26100158691406,-26.031999588012695 -125.39299774169922,-25.96299934387207 C-125.39299774169922,-25.96299934387207 -88.65299987792969,-24.371000289916992 -88.65299987792969,-24.371000289916992 C-86.78500366210938,-24.302000045776367 -85.19300079345703,-22.642000198364258 -85.4010009765625,-20.77400016784668z" transform="matrix(1,0,0,1,0,0)"/></g></g><g opacity="1"><g opacity="1"><path fill="#80EBFF" fill-opacity="1" d="M-132.38099670410156,94.36000061035156 C-132.38099670410156,94.36000061035156 101.34600067138672,104.53099822998047 101.34600067138672,104.53099822998047 C106.74299621582031,104.73899841308594 110.82499694824219,109.16699981689453 110.34100341796875,114.28700256347656 C110.34100341796875,114.28700256347656 107.50399780273438,145.83799743652344 107.50399780273438,145.83799743652344 C107.0199966430664,150.88900756835938 102.4530029296875,154.69500732421875 97.125,154.48699951171875 C97.125,154.48699951171875 -137.36300659179688,142.72500610351562 -137.36300659179688,142.72500610351562 C-142.48300170898438,142.447998046875 -146.28799438476562,138.1580047607422 -145.73500061035156,133.10699462890625 C-145.73500061035156,133.10699462890625 -142.27499389648438,102.73200225830078 -142.27499389648438,102.73200225830078 C-141.79100036621094,97.88899993896484 -137.36300659179688,94.15299987792969 -132.38099670410156,94.36000061035156z" transform="matrix(1,0,0,1,179,344.5) matrix(1,0,0,1,0,0)"/></g></g><g opacity="1"><g opacity="1"><path fill="#3CBBD2" fill-opacity="1" d="M16.034000396728516,123.76599884033203 C16.034000396728516,123.76599884033203 15.550000190734863,128.4709930419922 15.550000190734863,128.4709930419922 C15.342000007629395,130.27000427246094 13.680999755859375,131.6540069580078 11.812999725341797,131.5850067138672 C11.812999725341797,131.5850067138672 -53.29499816894531,127.77899932861328 -53.29499816894531,127.77899932861328 C-55.233001708984375,127.70999908447266 -56.68600082397461,126.04900360107422 -56.47800064086914,124.18099975585938 C-56.47800064086914,124.18099975585938 -55.99399948120117,119.40699768066406 -55.99399948120117,119.40699768066406 C-55.7859992980957,117.60800170898438 -54.125999450683594,116.2239990234375 -52.257999420166016,116.29399871826172 C-52.257999420166016,116.29399871826172 12.644000053405762,119.96099853515625 12.644000053405762,119.96099853515625 C14.581000328063965,120.0989990234375 16.240999221801758,121.8290023803711 16.034000396728516,123.76599884033203z" transform="matrix(1,0,0,1,179,344.5) matrix(1,0,0,1,0,0)"/></g></g><g mask="url(#__lottie_element_107)"><g opacity="1"><g opacity="1"><path fill="#FFFBEB" fill-opacity="0" d="M0 0" transform="matrix(1,0,0,1,179,344.5) matrix(1,0,0,1,0,0)"/></g><g opacity="1"><path fill="#F4F9FE" fill-opacity="1" d="M-95.70899963378906,-251.0399932861328 C-95.70899963378906,-251.0399932861328 133.52099609375,-249.3800048828125 133.52099609375,-249.3800048828125 C138.84800720214844,-249.31100463867188 142.79200744628906,-245.29800415039062 142.3769989013672,-240.38499450683594 C142.3769989013672,-240.38499450683594 126.60199737548828,-64.36299896240234 126.60199737548828,-64.36299896240234 C126.18599700927734,-59.45100021362305 121.62000274658203,-55.64500045776367 116.36100006103516,-55.784000396728516 C116.36100006103516,-55.784000396728516 -115.56700134277344,-62.42599868774414 -115.56700134277344,-62.42599868774414 C-120.68699645996094,-62.564998626708984 -124.4229965209961,-66.71600341796875 -123.87000274658203,-71.55899810791016 C-123.87000274658203,-71.55899810791016 -105.46499633789062,-242.66799926757812 -105.46499633789062,-242.66799926757812 C-104.91200256347656,-247.3730010986328 -100.62200164794922,-251.0399932861328 -95.70899963378906,-251.0399932861328z" transform="matrix(1,0,0,1,179,344.5) matrix(1,0,0,1,0,0)"/></g></g></g><g mask="url(#__lottie_element_113)"><g opacity="1"><g opacity="1"><path fill="#FEE895" fill-opacity="1" d="M0 0" transform="matrix(1,0,0,1,179,344.5) matrix(1,0,0,1,0,0)"/></g><g opacity="1"><path fill="#DDE7F2" fill-opacity="1" d="M36.494998931884766,-137.56700134277344 C36.494998931884766,-137.56700134277344 20.506999969482422,-161.74099731445312 20.506999969482422,-161.74099731445312 C20.06800079345703,-162.4010009765625 19.02400016784668,-162.45599365234375 18.474000930786133,-161.79600524902344 C18.474000930786133,-161.79600524902344 6.771999835968018,-149.15899658203125 6.771999835968018,-149.15899658203125 C5.618000030517578,-147.89599609375 3.5850000381469727,-147.78599548339844 2.430999994277954,-148.94000244140625 C2.430999994277954,-148.94000244140625 -1.690000057220459,-153.0050048828125 -1.690000057220459,-153.0050048828125 C-2.569000005722046,-153.8300018310547 -3.996999979019165,-153.93899536132812 -4.986000061035156,-153.1699981689453 C-4.986000061035156,-153.1699981689453 -24.106000900268555,-139.21499633789062 -24.106000900268555,-139.21499633789062 C-25.204999923706055,-138.4459991455078 -24.711000442504883,-136.8520050048828 -23.392000198364258,-136.7969970703125 C-23.392000198364258,-136.7969970703125 -3.3380000591278076,-136.35800170898438 -3.3380000591278076,-136.35800170898438 C-3.3380000591278076,-136.35800170898438 35.176998138427734,-135.4239959716797 35.176998138427734,-135.4239959716797 C36.33100128173828,-135.36900329589844 37.154998779296875,-136.63299560546875 36.494998931884766,-137.56700134277344z" transform="matrix(1,0,0,1,179,344.5) matrix(1,0,0,1,0,0)"/></g></g></g><g mask="url(#__lottie_element_119)"><g opacity="1"><g opacity="1"><path fill="#FEE895" fill-opacity="1" d="M0 0" transform="matrix(1,0,0,1,179,344.5) matrix(1,0,0,1,0,0)"/></g><g opacity="1"><path fill="#DDE7F2" fill-opacity="1" d="M11.003999710083008,-167.9499969482422 C10.619000434875488,-165.2570037841797 7.927000045776367,-163.0050048828125 5.014999866485596,-163.0050048828125 C2.1029999256134033,-163.0050048828125 0.07000000029802322,-165.1479949951172 0.45500001311302185,-167.83999633789062 C0.8389999866485596,-170.53199768066406 3.5309998989105225,-172.78500366210938 6.442999839782715,-172.78500366210938 C9.354999542236328,-172.83999633789062 11.387999534606934,-170.69700622558594 11.003999710083008,-167.9499969482422z" transform="matrix(1,0,0,1,179,344.5) matrix(1,0,0,1,0,0)"/></g></g></g><g clip-path="url(#__lottie_element_263)" opacity="1" transform="matrix(1,0,0,1,179,344.5)"><g opacity="1"><path fill="#FFFBEB" fill-opacity="0" d="M0 0" transform="matrix(1,0,0,1,0,0)"/></g><g opacity="1"><path fill="#FFFBEB" fill-opacity="1" d="M-95.70899963378906,-251.0399932861328 C-95.70899963378906,-251.0399932861328 133.52099609375,-249.3800048828125 133.52099609375,-249.3800048828125 C138.84800720214844,-249.31100463867188 142.79200744628906,-245.29800415039062 142.3769989013672,-240.38499450683594 C142.3769989013672,-240.38499450683594 126.60199737548828,-64.36299896240234 126.60199737548828,-64.36299896240234 C126.18599700927734,-59.45100021362305 121.62000274658203,-55.64500045776367 116.36100006103516,-55.784000396728516 C116.36100006103516,-55.784000396728516 -115.56700134277344,-62.42599868774414 -115.56700134277344,-62.42599868774414 C-120.68699645996094,-62.564998626708984 -124.4229965209961,-66.71600341796875 -123.87000274658203,-71.55899810791016 C-123.87000274658203,-71.55899810791016 -105.46499633789062,-242.66799926757812 -105.46499633789062,-242.66799926757812 C-104.91200256347656,-247.3730010986328 -100.62200164794922,-251.0399932861328 -95.70899963378906,-251.0399932861328z" transform="matrix(1,0,0,1,0,0)"/></g></g><g clip-path="url(#__lottie_element_266)" opacity="1" transform="matrix(1,0,0,1,179,344.5)"><g opacity="1"><path fill="#FEE895" fill-opacity="1" d="M0 0" transform="matrix(1,0,0,1,0,0)"/></g><g opacity="1"><path fill="#FEE895" fill-opacity="1" d="M36.494998931884766,-137.56700134277344 C36.494998931884766,-137.56700134277344 20.506999969482422,-161.74099731445312 20.506999969482422,-161.74099731445312 C20.06800079345703,-162.4010009765625 19.02400016784668,-162.45599365234375 18.474000930786133,-161.79600524902344 C18.474000930786133,-161.79600524902344 6.771999835968018,-149.15899658203125 6.771999835968018,-149.15899658203125 C5.618000030517578,-147.89599609375 3.5850000381469727,-147.78599548339844 2.430999994277954,-148.94000244140625 C2.430999994277954,-148.94000244140625 -1.690000057220459,-153.0050048828125 -1.690000057220459,-153.0050048828125 C-2.569000005722046,-153.8300018310547 -3.996999979019165,-153.93899536132812 -4.986000061035156,-153.1699981689453 C-4.986000061035156,-153.1699981689453 -24.106000900268555,-139.21499633789062 -24.106000900268555,-139.21499633789062 C-25.204999923706055,-138.4459991455078 -24.711000442504883,-136.8520050048828 -23.392000198364258,-136.7969970703125 C-23.392000198364258,-136.7969970703125 -3.3380000591278076,-136.35800170898438 -3.3380000591278076,-136.35800170898438 C-3.3380000591278076,-136.35800170898438 35.176998138427734,-135.4239959716797 35.176998138427734,-135.4239959716797 C36.33100128173828,-135.36900329589844 37.154998779296875,-136.63299560546875 36.494998931884766,-137.56700134277344z" transform="matrix(1,0,0,1,0,0)"/></g></g><g clip-path="url(#__lottie_element_269)" opacity="1" transform="matrix(1,0,0,1,179,344.5)"><g opacity="1"><path fill="#FEE895" fill-opacity="1" d="M0 0" transform="matrix(1,0,0,1,0,0)"/></g><g opacity="1"><path fill="#FEE895" fill-opacity="1" d="M11.003999710083008,-167.9499969482422 C10.619000434875488,-165.2570037841797 7.927000045776367,-163.0050048828125 5.014999866485596,-163.0050048828125 C2.1029999256134033,-163.0050048828125 0.07000000029802322,-165.1479949951172 0.45500001311302185,-167.83999633789062 C0.8389999866485596,-170.53199768066406 3.5309998989105225,-172.78500366210938 6.442999839782715,-172.78500366210938 C9.354999542236328,-172.83999633789062 11.387999534606934,-170.69700622558594 11.003999710083008,-167.9499969482422z" transform="matrix(1,0,0,1,0,0)"/></g></g></g></svg>