<svg xmlns="http://www.w3.org/2000/svg" xmlns:xlink="http://www.w3.org/1999/xlink" width="708" height="548" version="1.1" viewBox="0 0 708 548"><title>Group 5 Copy</title><desc>Created with Sketch.</desc><defs><rect id="path-1" width="652" height="492" x="0" y="0" rx="31"/><filter id="filter-3" width="114.6%" height="119.3%" x="-7.3%" y="-7.4%" filterUnits="objectBoundingBox"><feOffset dx="0" dy="11" in="SourceAlpha" result="shadowOffsetOuter1"/><feGaussianBlur in="shadowOffsetOuter1" result="shadowBlurOuter1" stdDeviation="14"/><feColorMatrix in="shadowBlurOuter1" type="matrix" values="0 0 0 0 0.458823529 0 0 0 0 0.552941176 0 0 0 0 0.650980392 0 0 0 0.214160839 0"/></filter></defs><g id="Page-1" fill="none" fill-rule="evenodd" stroke="none" stroke-width="1"><g id="Artboard-Copy-13" transform="translate(-376.000000, -168.000000)"><g id="Group-5-Copy" transform="translate(404.000000, 185.000000)"><g id="Group-2"><g id="Rectangle-2"><mask id="mask-2" fill="#fff"><use xlink:href="#path-1"/></mask><g id="Rectangle"><use fill="#000" fill-opacity="1" filter="url(#filter-3)" xlink:href="#path-1"/><use fill="#FFF" fill-rule="evenodd" xlink:href="#path-1"/></g><rect id="Rectangle" width="129" height="522" x="0" y="0" fill="#F5F9FF" mask="url(#mask-2)"/><rect id="Rectangle" width="59" height="5" x="30" y="75" fill="#ADC6E2" mask="url(#mask-2)" rx="2.5"/><rect id="Rectangle-Copy-10" width="127" height="5" x="159" y="73" fill="#ADC6E2" mask="url(#mask-2)" rx="2.5"/><rect id="Rectangle-Copy-11" width="59" height="5" x="159" y="88" fill="#C3D7E9" mask="url(#mask-2)" rx="2.5"/><rect id="Rectangle-Copy-12" width="37" height="5" x="223" y="88" fill="#C3D7E9" mask="url(#mask-2)" rx="2.5"/><rect id="Rectangle-Copy-5" width="59" height="5" x="30" y="167" fill="#ADC6E2" mask="url(#mask-2)" rx="2.5"/><rect id="Rectangle-Copy" width="37" height="5" x="30" y="96" fill="#D2E0F1" mask="url(#mask-2)" rx="2.5"/><rect id="Rectangle-Copy-2" width="37" height="5" x="30" y="122" fill="#D2E0F1" mask="url(#mask-2)" rx="2.5"/><rect id="Rectangle-Copy-7" width="37" height="5" x="30" y="135" fill="#D2E0F1" mask="url(#mask-2)" rx="2.5"/><rect id="Rectangle-Copy-4" width="37" height="5" x="30" y="188" fill="#D2E0F1" mask="url(#mask-2)" rx="2.5"/><rect id="Rectangle-Copy-6" width="37" height="5" x="30" y="201" fill="#D2E0F1" mask="url(#mask-2)" rx="2.5"/><rect id="Rectangle-Copy-8" width="37" height="5" x="30" y="214" fill="#D2E0F1" mask="url(#mask-2)" rx="2.5"/><rect id="Rectangle-Copy-9" width="37" height="5" x="30" y="227" fill="#D2E0F1" mask="url(#mask-2)" rx="2.5"/><rect id="Rectangle-Copy-3" width="37" height="5" x="30" y="109" fill="#D2E0F1" mask="url(#mask-2)" rx="2.5"/></g><circle id="Oval" cx="35" cy="24" r="5" fill="#80EBFF"/><circle id="Oval-Copy" cx="51" cy="24" r="5" fill="#FD7A8C"/><circle id="Oval-Copy-2" cx="67" cy="24" r="5" fill="#FEE895"/></g></g></g></g></svg>